<?xml version="1.0" encoding="utf-8"?>
<!-- Generator: Adobe Illustrator 27.2.0, SVG Export Plug-In . SVG Version: 6.00 Build 0)  -->
<svg version="1.1" id="图层_1" xmlns="http://www.w3.org/2000/svg" xmlns:xlink="http://www.w3.org/1999/xlink" x="0px" y="0px"
	 viewBox="0 0 200.8 200" style="enable-background:new 0 0 200.8 200;" xml:space="preserve">
<style type="text/css">
	.st0{fill:#1296DB;}
</style>
<path class="st0" d="M173.7,44.2c0.5,1,0.8,2.2,1.1,3.6c0.3,1.4,0.4,2.8,0.4,4.3c0,1.5-0.3,3-0.9,4.4c-0.6,1.5-1.5,2.9-2.7,4.3
	c-1.4,1.4-2.6,2.6-3.7,3.6c-1.1,1-2,1.9-2.8,2.7c-0.9,0.9-1.8,1.7-2.6,2.4l-31.8-31.8c1.4-1.2,3-2.8,4.9-4.5s3.4-3.1,4.7-4.2
	c1.6-1.2,3.2-2.1,4.9-2.6c1.7-0.5,3.4-0.7,5-0.7c1.6,0.1,3.2,0.3,4.8,0.8c1.5,0.5,2.9,1,4,1.5c2.4,1.2,5,3.4,7.9,6.6
	C169.9,37.5,172.1,40.8,173.7,44.2L173.7,44.2z M41.1,127.2c0.7-0.7,2.3-2.3,4.8-4.9c2.5-2.6,5.6-5.7,9.4-9.4l12.4-12.4l13.8-13.8
	L118,50.1l31.8,32l-36.6,36.6l-13.6,13.8c-4.5,4.4-8.6,8.5-12.3,12.2c-3.6,3.7-6.6,6.7-9,9.1c-2.4,2.4-3.8,3.7-4.3,4.1
	c-1.1,1-2.4,2.1-3.9,3.2s-3,2-4.6,2.7c-1.6,0.8-3.9,1.8-7,2.9c-3.1,1.1-6.3,2.2-9.6,3.3c-3.3,1.1-6.5,2-9.5,2.8
	c-3,0.8-5.2,1.3-6.7,1.5c-3.1,0.3-5.1-0.1-6.1-1.4c-1-1.2-1.3-3.3-0.9-6.3c0.2-1.6,0.8-3.9,1.6-6.9c0.9-3,1.8-6.1,2.7-9.4
	c1-3.2,1.9-6.2,2.8-8.9c0.9-2.7,1.6-4.6,2.2-5.6c0.7-1.6,1.4-3,2.3-4.3C38.3,130.3,39.5,128.8,41.1,127.2L41.1,127.2z"/>
</svg>
