<?xml version="1.0" encoding="utf-8"?>
<!-- Generator: Adobe Illustrator 27.2.0, SVG Export Plug-In . SVG Version: 6.00 Build 0)  -->
<svg version="1.1" id="图层_1" xmlns="http://www.w3.org/2000/svg" xmlns:xlink="http://www.w3.org/1999/xlink" x="0px" y="0px"
	 viewBox="0 0 200 200" style="enable-background:new 0 0 200 200;" xml:space="preserve">
<style type="text/css">
	.st0{fill:#1296DB;}
</style>
<path class="st0" d="M175,86.1c-0.4-2.9-2.2-5.5-5.5-6.2h-0.4c-6.6-1.5-11.3-5.1-15-11.3c-3.3-5.5-4.4-12.4-2.2-18.6
	c1.1-2.6,0.4-5.8-2.2-8c-6.9-6.6-15.3-11.7-24.8-15c-2.6-1.1-5.5-0.4-8,2.2c-4,5.1-10.2,7.7-17.2,7.7c-6.2,0-12.1-2.9-17.2-8
	c-2.9-2.9-5.8-2.6-8-1.8c-9.5,4-17.5,8.8-24.5,14.6c-2.6,1.8-3.7,5.1-2.6,8c1.8,6.9,1.1,13.5-2.2,19.4c-2.9,5.1-8.4,9.1-15,11
	c-0.4,0-0.4,0-0.7,0.4c-2.2,1.1-3.7,2.9-4.7,5.5v0.4c-1.1,5.5-1.5,10.2-1.5,15c0,4.7,0.4,10.2,1.5,14.6c0.4,2.9,2.2,5.5,5.5,6.2h0.4
	c6.6,1.5,11.3,5.1,15,11.3c3.3,5.5,4.4,12.4,2.2,18.6c-1.1,2.6-0.4,5.8,2.2,8c6.9,6.6,15.3,11.7,25.2,15c0.4,0,0.7,0.4,1.5,0.4h1.1
	c1.8,0,4-0.7,5.8-2.6c4-4.7,10.2-7.7,17.2-7.7c6.2,0,12.1,2.9,17.2,8c1.5,1.5,3.3,2.6,5.1,2.6c0.7,0,1.8,0,2.6-0.4
	c9.5-4,17.5-8.8,24.5-14.6c2.6-1.5,3.7-5.1,2.6-8c-1.8-6.9-1.1-13.5,2.2-19.4c2.9-5.1,8.4-9.1,15-11c0.4,0,0.4,0,0.7-0.4
	c2.2-1.1,3.7-2.9,4.7-5.5v-0.4c1.1-5.5,1.5-10.2,1.5-15C176.5,96,176.1,90.8,175,86.1L175,86.1z M100.1,129.6
	c-15.9,0-28.6-12.6-28.6-28.6s12.6-28.6,28.6-28.6s28.6,12.6,28.6,28.6S116,129.6,100.1,129.6z"/>
</svg>
