<?xml version="1.0" encoding="utf-8"?>
<!-- Generator: Adobe Illustrator 27.2.0, SVG Export Plug-In . SVG Version: 6.00 Build 0)  -->
<svg version="1.1" id="图层_1" xmlns="http://www.w3.org/2000/svg" xmlns:xlink="http://www.w3.org/1999/xlink" x="0px" y="0px"
	 viewBox="0 0 200 200" style="enable-background:new 0 0 200 200;" xml:space="preserve">
<style type="text/css">
	.st0{fill:#1296DB;}
</style>
<path class="st0" d="M171.2,170.6c-5.4,5.4-14.3,5.4-19.8,0l-24.6-24.4c-10.1,6.5-22.1,10.3-35,10.3c-35.9,0-65.1-29-65.1-64.6
	s29.2-64.6,65.1-64.6s65.1,29,65.1,64.6c0,12.8-3.8,24.7-10.4,34.8l24.6,24.4C176.6,156.4,176.6,165.2,171.2,170.6L171.2,170.6
	L171.2,170.6z M92.32,64.32c-15.06,0-27.33,12.19-27.33,27.17s12.27,27.17,27.33,27.17s27.33-12.19,27.33-27.17
	S107.54,64.32,92.32,64.32L92.32,64.32z"/>
</svg>
